<?xml version="1.0" encoding="UTF-8"?>
<svg version="1.1" xmlns="http://www.w3.org/2000/svg" width="512" height="512">
<path d="M0 0 C2.79922609 3.5754307 2.52184003 6.45811079 2.35546875 10.875 C0.51784019 21.93879124 -6.91909587 31.25648723 -13.89599609 39.69384766 C-15.17922117 41.24677395 -16.43955952 42.81852282 -17.69921875 44.390625 C-30.11930703 59.69949487 -44.2357757 72.7852774 -60.2109375 84.28515625 C-61.32370884 85.10439382 -62.43573667 85.92464266 -63.546875 86.74609375 C-71.98012734 92.8923624 -80.68458796 98.62671285 -89.38476562 104.38623047 C-94.92741403 108.06359805 -100.40580819 111.79456346 -105.7734375 115.72265625 C-111.09142393 119.58553719 -116.56579085 123.02706899 -122.24047852 126.33178711 C-125.40794304 128.17699173 -128.26423629 130.07513034 -131.2109375 132.28515625 C-125.6009375 143.50515625 -119.9909375 154.72515625 -114.2109375 166.28515625 C-109.10303148 164.64281559 -109.10303148 164.64281559 -104.66015625 162.26171875 C-104.04857666 161.88208984 -103.43699707 161.50246094 -102.80688477 161.11132812 C-102.17709717 160.71494141 -101.54730957 160.31855469 -100.8984375 159.91015625 C-85.41982607 150.43368671 -85.41982607 150.43368671 -76.2109375 150.28515625 C-71.02932399 151.69033957 -68.05566272 153.75206841 -65.21875 158.1953125 C-62.74749786 163.31980822 -61.96960154 168.28551545 -62.6484375 173.91015625 C-68.73715913 187.06179498 -83.51589476 193.74550124 -96.2109375 199.28515625 C-96.8709375 199.28515625 -97.5309375 199.28515625 -98.2109375 199.28515625 C-96.8426254 202.205095 -95.46662018 205.12105826 -94.0859375 208.03515625 C-93.39927002 209.49091064 -93.39927002 209.49091064 -92.69873047 210.97607422 C-89.57238901 217.53583465 -86.33414988 224.02647559 -82.99984741 230.48327637 C-80.95098563 234.45153764 -78.91756443 238.42765125 -76.88336182 242.40344238 C-75.85065779 244.41003196 -74.81005712 246.41257685 -73.76165771 248.41101074 C-72.269173 251.25774681 -70.80421265 254.11720415 -69.34375 256.98046875 C-68.88188293 257.8442514 -68.42001587 258.70803406 -67.94415283 259.59799194 C-66.82329308 261.82860473 -65.84367387 263.87050066 -65.2109375 266.28515625 C-66.88611475 270.86872797 -70.14346495 273.06972352 -74.0234375 275.91015625 C-75.04050781 276.66554688 -76.05757813 277.4209375 -77.10546875 278.19921875 C-84.64999675 283.26686398 -84.64999675 283.26686398 -88.2109375 283.30859375 C-91.33516045 281.70987029 -93.7090297 279.32536427 -96.2109375 276.91015625 C-101.00294656 272.35309341 -101.00294656 272.35309341 -106.2109375 268.28515625 C-106.5409375 269.93515625 -106.8709375 271.58515625 -107.2109375 273.28515625 C-111.29455977 274.84909669 -111.29455977 274.84909669 -114.2109375 274.28515625 C-116.74013999 272.07726805 -118.75456349 269.64267118 -120.88671875 267.05078125 C-124.28228436 263.01034351 -128.20197964 259.69886634 -132.2109375 256.28515625 C-136.48135021 252.6318552 -140.59665899 248.93458112 -144.5234375 244.91015625 C-148.64364874 240.73301636 -153.03838913 237.03872878 -157.61328125 233.37109375 C-160.87894992 230.74873725 -164.04621362 228.02791694 -167.2109375 225.28515625 C-166.62986118 221.52485775 -165.55894254 218.75480593 -163.6484375 215.47265625 C-163.19339844 214.68246094 -162.73835938 213.89226562 -162.26953125 213.078125 C-161.92019531 212.48644531 -161.57085937 211.89476562 -161.2109375 211.28515625 C-163.5209375 210.95515625 -165.8309375 210.62515625 -168.2109375 210.28515625 C-168.2934375 211.31640625 -168.3759375 212.34765625 -168.4609375 213.41015625 C-169.57886986 219.1861401 -172.02681776 222.69332335 -176.7109375 226.16015625 C-181.94147628 229.18681633 -187.3427894 229.19175216 -193.2109375 228.28515625 C-196.97956397 226.79220038 -198.95268442 224.67253588 -201.2109375 221.28515625 C-201.4378125 220.19203125 -201.6646875 219.09890625 -201.8984375 217.97265625 C-205.27030279 208.49932044 -216.78384559 204.55835344 -225.2109375 200.28515625 C-224.73362912 198.82621365 -224.25402708 197.36802129 -223.7734375 195.91015625 C-223.50660156 195.09804688 -223.23976563 194.2859375 -222.96484375 193.44921875 C-222.2109375 191.28515625 -222.2109375 191.28515625 -221.2109375 189.28515625 C-227.83512973 191.18491351 -233.34088531 193.90791429 -239.2109375 197.47265625 C-271.56935034 216.47301132 -307.00950556 231.42997696 -342.2109375 244.28515625 C-343.92410156 244.91164063 -343.92410156 244.91164063 -345.671875 245.55078125 C-348.2109375 246.28515625 -348.2109375 246.28515625 -352.2109375 246.28515625 C-349.90212084 250.56632885 -347.52613078 254.79625746 -344.98046875 258.94140625 C-344.38963501 259.90711548 -344.38963501 259.90711548 -343.78686523 260.89233398 C-343.00443388 262.1662703 -342.21644424 263.43681468 -341.42211914 264.70336914 C-338.73642694 269.08473596 -336.89622457 273.42787982 -335.2109375 278.28515625 C-338.93440586 282.70610428 -342.50614788 286.86349107 -347.2109375 290.28515625 C-357.36556809 283.91836405 -366.69367162 276.39021482 -375.72607422 268.53442383 C-378.0333213 266.52960726 -380.35908333 264.54746745 -382.69335938 262.57421875 C-384.01772813 261.44927232 -385.32665847 260.30620107 -386.6328125 259.16015625 C-391.07356956 255.65941346 -393.98149991 254.9808428 -399.6484375 255.41015625 C-401.83684532 255.69493148 -404.02439576 255.98639057 -406.2109375 256.28515625 C-408.08421876 256.38688411 -409.95999407 256.45348603 -411.8359375 256.47265625 C-412.61195313 256.48683594 -413.38796875 256.50101562 -414.1875 256.515625 C-416.2109375 256.28515625 -416.2109375 256.28515625 -419.2109375 254.28515625 C-418.67978644 249.77037227 -416.84473458 246.93848768 -414.2109375 243.28515625 C-421.5203656 239.50482104 -428.96074612 236.16928953 -436.54296875 232.9765625 C-438.27337654 232.24275612 -438.27337654 232.24275612 -440.03874207 231.49412537 C-443.08229083 230.20374854 -446.12688513 228.91588769 -449.17218018 227.62963867 C-453.44123719 225.82636287 -457.70922167 224.02056554 -461.97599792 222.2118988 C-464.23691815 221.25362948 -466.49866921 220.2973169 -468.76142883 219.34339905 C-476.31910452 216.14188542 -483.77683518 212.76363842 -491.2109375 209.28515625 C-488.02112098 203.67107917 -484.68368252 200.65568682 -478.32421875 198.70703125 C-463.5296926 195.75359535 -448.59592026 201.79062175 -434.5859375 205.94921875 C-432.794582 206.47891805 -431.00292196 207.00758865 -429.2109375 207.53515625 C-428.35282471 207.78813477 -427.49471191 208.04111328 -426.6105957 208.30175781 C-419.18097662 210.42716237 -411.89243606 211.53189943 -404.2109375 212.28515625 C-404.22664795 211.50914062 -404.2423584 210.733125 -404.25854492 209.93359375 C-404.32128423 206.38419006 -404.36005197 202.83490349 -404.3984375 199.28515625 C-404.42357422 198.06441406 -404.44871094 196.84367188 -404.47460938 195.5859375 C-404.53566149 188.05617692 -404.54989895 181.53238441 -399.703125 175.3671875 C-387.99697004 166.1775731 -387.99697004 166.1775731 -382.27734375 166.3984375 C-374.62682355 168.61075353 -368.54590932 175.55148927 -363.69140625 181.64453125 C-360.94634562 184.68655095 -357.56553725 186.96077622 -354.2109375 189.28515625 C-347.61520386 185.20269055 -341.25640522 180.9179483 -335.015625 176.3125 C-331.22254809 173.57070764 -327.31786631 171.0139065 -323.40625 168.4453125 C-321.06979356 166.86577655 -318.78680112 165.26206853 -316.515625 163.59375 C-315.89276611 163.13790527 -315.26990723 162.68206055 -314.62817383 162.21240234 C-313.41941643 161.32297838 -312.21582366 160.42647902 -311.01831055 159.52197266 C-307.78667055 157.14818619 -305.22888832 155.69821661 -301.2109375 155.28515625 C-305.00579339 148.42465208 -309.3142494 142.5715433 -314.55078125 136.73046875 C-316.2109375 134.28515625 -316.2109375 134.28515625 -316.21875 132.19140625 C-314.91393057 129.7233757 -313.32300439 128.40134385 -311.1484375 126.66015625 C-309.80181578 125.57623227 -308.48005728 124.45887523 -307.2109375 123.28515625 C-307.2109375 122.62515625 -307.2109375 121.96515625 -307.2109375 121.28515625 C-308.95443683 119.67443141 -308.95443683 119.67443141 -311.2109375 118.03515625 C-312.02433594 117.42027344 -312.83773437 116.80539063 -313.67578125 116.171875 C-314.93068359 115.23794922 -314.93068359 115.23794922 -316.2109375 114.28515625 C-316.99597656 113.69347656 -317.78101563 113.10179687 -318.58984375 112.4921875 C-320.45939646 111.08417016 -322.33306547 109.68204744 -324.2109375 108.28515625 C-327.99959291 109.97267962 -330.37966326 112.28886343 -333.234375 115.23828125 C-335.2109375 116.28515625 -335.2109375 116.28515625 -337.96484375 115.515625 C-343.72759363 113.33118913 -349.26484943 110.6610613 -354.8359375 108.03515625 C-355.53392456 107.70700928 -356.23191162 107.3788623 -356.9510498 107.04077148 C-372.897283 99.52554501 -388.67432217 91.6637066 -404.44591522 83.79060364 C-406.44596821 82.79262556 -408.44669877 81.7960174 -410.4475708 80.79968262 C-448.32370235 61.92892044 -448.32370235 61.92892044 -453.2109375 56.28515625 C-453.2109375 55.62515625 -453.2109375 54.96515625 -453.2109375 54.28515625 C-452.5509375 53.95515625 -451.8909375 53.62515625 -451.2109375 53.28515625 C-451.2109375 52.29515625 -451.2109375 51.30515625 -451.2109375 50.28515625 C-451.82912354 49.96353516 -452.44730957 49.64191406 -453.08422852 49.31054688 C-465.15778178 43.0266966 -477.22012657 36.7257182 -489.2109375 30.28515625 C-484.15678909 22.65084384 -479.39807521 15.51075905 -470.23046875 12.671875 C-463.31764567 11.34814292 -457.40057771 12.33032343 -450.76391602 14.52563477 C-449.33350251 14.98584721 -447.90300972 15.44581331 -446.47244263 15.9055481 C-445.75660633 16.13795826 -445.04077003 16.37036842 -444.30324173 16.60982132 C-441.21161208 17.60770942 -438.10787112 18.56525983 -435.00366211 19.52319336 C-433.80989456 19.89308884 -432.61612701 20.26298431 -431.38618469 20.64408875 C-430.14112656 21.02966446 -428.89606842 21.41524017 -427.61328125 21.8125 C-426.23865709 22.23836988 -424.86403874 22.66425854 -423.48942566 23.09016418 C-419.8080234 24.23074187 -416.12654728 25.37108097 -412.44504547 26.51133728 C-406.12703792 28.46818785 -399.80908279 30.42520765 -393.49114227 32.38227463 C-391.85390286 32.88942868 -390.2166602 33.39657227 -388.57941437 33.9037056 C-377.14882091 37.44436654 -365.71923422 40.98825811 -354.29047585 44.53483772 C-349.57681375 45.99746055 -344.86297262 47.45950626 -340.14913082 48.9215498 C-336.43053227 50.07496893 -332.71205008 51.22875994 -328.99386597 52.3835144 C-328.29147325 52.60160798 -327.58908052 52.81970156 -326.86540318 53.04440403 C-325.46396772 53.47960816 -324.06258686 53.91498814 -322.66126156 54.35054684 C-319.25479812 55.40852141 -315.84686625 56.46119413 -312.43522644 57.50236511 C-306.0696474 59.44824707 -299.72414327 61.43096095 -293.41354179 63.54949188 C-290.40115908 64.55638965 -287.38050188 65.53686518 -284.35845566 66.51432037 C-282.92379755 66.98588412 -281.49309115 67.46967307 -280.0669899 67.96651459 C-272.41973398 70.85601367 -272.41973398 70.85601367 -264.47996521 70.57139587 C-260.0207451 68.17070671 -257.04862552 64.85466218 -253.84423828 60.99853516 C-251.04083841 58.05768907 -247.62996697 56.38578204 -244.0234375 54.59765625 C-243.39808105 54.2723291 -242.77272461 53.94700195 -242.12841797 53.61181641 C-235.75251614 50.37206458 -230.31039856 49.6775954 -223.2109375 50.28515625 C-216.79503667 52.46414144 -213.58192374 56.7795607 -210.3984375 62.59765625 C-208.96613828 67.04532224 -208.22438084 70.67357745 -209.2109375 75.28515625 C-210.9131913 78.53670771 -212.93082224 81.41465401 -215.2109375 84.28515625 C-206.98134343 86.59521774 -201.0541538 87.37021668 -193.3125 83.20703125 C-184.42143545 77.69770662 -176.13256153 71.23008614 -167.7734375 64.95703125 C-149.08033088 50.97248481 -129.6911319 37.53350917 -109.2109375 26.28515625 C-107.93718262 25.57866943 -107.93718262 25.57866943 -106.63769531 24.85791016 C-85.61343502 13.27561618 -23.85833885 -18.504966 0 0 Z " fill="#201C20" transform="translate(500.2109375,99.71484375)"/>
</svg>
